<svg width="28" height="29" viewBox="0 0 28 29" fill="none" xmlns="http://www.w3.org/2000/svg">
<path d="M14.1844 0.9375C21.6766 0.9375 27.7469 7.00781 27.7469 14.5C27.7469 21.9922 21.6766 28.0625 14.1844 28.0625C6.69219 28.0625 0.621876 21.9922 0.621876 14.5C0.621876 7.00781 6.69219 0.9375 14.1844 0.9375ZM12.5984 8.8125L16.7 12.75H6.74688C5.98125 12.75 5.43438 13.3516 5.43438 14.0625V14.9375C5.43438 15.7031 5.98125 16.25 6.74688 16.25H16.7L12.5984 20.2422C12.0516 20.7344 12.0516 21.6094 12.5438 22.1016L13.1453 22.7031C13.6922 23.1953 14.5125 23.1953 15.0047 22.7031L22.2781 15.4297C22.7703 14.9375 22.7703 14.1172 22.2781 13.625L15.0047 6.35156C14.5125 5.80469 13.6922 5.80469 13.1453 6.35156L12.5438 6.95312C12.0516 7.44531 12.0516 8.32031 12.5984 8.8125Z" fill="white"/>
</svg>
