<svg width="21" height="16" viewBox="0 0 21 16" fill="none" xmlns="http://www.w3.org/2000/svg">
<path d="M19.5969 13.285C19.9094 13.285 20.2219 13.5975 20.2219 13.91V15.16C20.2219 15.5116 19.9094 15.785 19.5969 15.785H1.47188C0.76875 15.785 0.221875 15.2382 0.221875 14.535V1.41003C0.221875 1.09753 0.495313 0.785034 0.846875 0.785034H2.09688C2.40938 0.785034 2.72188 1.09753 2.72188 1.41003V13.285H19.5969ZM18.3469 2.03503C18.6594 2.03503 18.9719 2.34753 18.9328 2.66003V7.30847C18.9328 8.12878 17.9563 8.55847 17.3703 7.97253L16.0813 6.68347L12.3313 10.4335C11.8625 10.9413 11.0422 10.9413 10.5734 10.4335L7.72188 7.58191L5.88594 9.37878C5.65156 9.61316 5.26094 9.61316 5.02656 9.37878L4.12813 8.48035C3.89375 8.24597 3.89375 7.85535 4.12813 7.62097L6.82344 4.92566C7.29219 4.41785 8.1125 4.41785 8.58125 4.92566L11.4719 7.77722L14.3234 4.92566L13.0344 3.6366C12.4484 3.05066 12.8781 2.03503 13.6984 2.03503H18.3469Z" fill="#00A4FF"/>
</svg>
