<svg width="92" height="92" viewBox="0 0 92 92" fill="none" xmlns="http://www.w3.org/2000/svg">
<g filter="url(#filter0_dd_5273_584)">
<path d="M73.0251 17.0582C73.5176 16.6068 73.9135 16.0603 74.1889 15.4517C74.4644 14.8431 74.6136 14.1849 74.6277 13.517C74.6417 12.8491 74.5203 12.1853 74.2707 11.5656C74.0212 10.9459 73.6486 10.3833 73.1756 9.91152C72.7026 9.43979 72.1389 9.06879 71.5185 8.82093C70.8981 8.57306 70.234 8.45346 69.5661 8.46936C68.8983 8.48525 68.2405 8.6363 67.6327 8.91339C67.0248 9.19049 66.4794 9.58788 66.0293 10.0816L42.3585 33.7524C41.4407 34.6819 40.9244 35.9345 40.921 37.2407V64.0741H29.9768C29.526 64.0841 29.097 64.2703 28.7818 64.5927C28.4665 64.9151 28.29 65.3482 28.2901 65.7991C28.272 66.0335 28.3036 66.269 28.3828 66.4904C28.4621 66.7117 28.5873 66.9137 28.7501 67.0832L44.3135 82.7807C44.7149 83.1752 45.2552 83.3963 45.8181 83.3963C46.3809 83.3963 46.9212 83.1752 47.3227 82.7807L62.9626 67.0832C63.1209 66.9264 63.2464 66.7398 63.3321 66.5342C63.4178 66.3286 63.462 66.1081 63.462 65.8853C63.462 65.6626 63.4178 65.442 63.3321 65.2364C63.2464 65.0308 63.1209 64.8442 62.9626 64.6874C62.6359 64.3891 62.2161 64.2131 61.7743 64.1891H50.7918V39.2724L73.0251 17.0582Z" stroke="white" stroke-width="1.91667" stroke-linecap="round" stroke-linejoin="round"/>
<path d="M45.8268 30.2833L25.9701 10.3692C25.0424 9.44147 23.7842 8.92029 22.4722 8.92029C21.1602 8.92029 19.902 9.44147 18.9743 10.3692C18.0466 11.2969 17.5254 12.5551 17.5254 13.8671C17.5254 15.1791 18.0466 16.4373 18.9743 17.365L40.9201 39.1192" stroke="white" stroke-width="1.91667" stroke-linecap="round" stroke-linejoin="round"/>
</g>
<defs>
<filter id="filter0_dd_5273_584" x="-47.3225" y="-51.2681" width="186.799" height="204.623" filterUnits="userSpaceOnUse" color-interpolation-filters="sRGB">
<feFlood flood-opacity="0" result="BackgroundImageFix"/>
<feColorMatrix in="SourceAlpha" type="matrix" values="0 0 0 0 0 0 0 0 0 0 0 0 0 0 0 0 0 0 127 0" result="hardAlpha"/>
<feOffset dy="5.11111"/>
<feGaussianBlur stdDeviation="15.9722"/>
<feComposite in2="hardAlpha" operator="out"/>
<feColorMatrix type="matrix" values="0 0 0 0 1 0 0 0 0 1 0 0 0 0 1 0 0 0 0.25 0"/>
<feBlend mode="normal" in2="BackgroundImageFix" result="effect1_dropShadow_5273_584"/>
<feColorMatrix in="SourceAlpha" type="matrix" values="0 0 0 0 0 0 0 0 0 0 0 0 0 0 0 0 0 0 127 0" result="hardAlpha"/>
<feOffset dy="5.11111"/>
<feGaussianBlur stdDeviation="31.9444"/>
<feComposite in2="hardAlpha" operator="out"/>
<feColorMatrix type="matrix" values="0 0 0 0 1 0 0 0 0 1 0 0 0 0 1 0 0 0 0.25 0"/>
<feBlend mode="normal" in2="effect1_dropShadow_5273_584" result="effect2_dropShadow_5273_584"/>
<feBlend mode="normal" in="SourceGraphic" in2="effect2_dropShadow_5273_584" result="shape"/>
</filter>
</defs>
</svg>
